<svg width="300" height="300" viewBox="0 0 300 300" fill="none" xmlns="http://www.w3.org/2000/svg">
<rect width="300" height="300" rx="150" fill="black"/>
<path d="M206.392 152.4H224.568V242H207.928V226.896C201.101 232.357 193.08 236.539 183.864 239.44C174.819 242.171 165.091 243.536 154.68 243.536C138.637 243.536 123.704 239.952 109.88 232.784C96.2267 225.616 85.2187 215.205 76.856 201.552C68.4933 187.899 64.312 171.685 64.312 152.912C64.312 135.504 68.408 119.888 76.6 106.064C84.792 92.0693 96.056 81.1467 110.392 73.296C124.728 65.2747 140.941 61.264 159.032 61.264C172.685 61.264 185.229 63.4827 196.664 67.92C208.099 72.1867 217.741 78.5867 225.592 87.12L213.816 99.152C199.651 85.1573 181.645 78.16 159.8 78.16C145.293 78.16 132.152 81.4027 120.376 87.888C108.771 94.2027 99.64 103.077 92.984 114.512C86.328 125.947 83 138.747 83 152.912C83 168.101 86.328 181.328 92.984 192.592C99.8107 203.685 108.771 212.219 119.864 218.192C131.128 223.995 143.16 226.896 155.96 226.896C165.347 226.896 174.392 225.36 183.096 222.288C191.971 219.045 199.736 214.181 206.392 207.696V152.4Z" fill="white"/>
</svg>
